<mxfile modified="2022-05-02T19:56:55.246Z" host="app.diagrams.net" agent="5.0 (Windows NT 10.0; Win64; x64) AppleWebKit/537.36 (KHTML, like Gecko) Chrome/100.0.4896.127 Safari/537.36 Edg/100.0.1185.50" etag="L4vUXsnalNTafhxm-qWI" compressed="false" version="17.5.0" type="google">
  <diagram id="nflokqCuFG1vXPj2MAnp" name="ISO-25022 - Quality In Use">
    <mxGraphModel grid="1" page="1" gridSize="10" guides="1" tooltips="1" connect="1" arrows="1" fold="1" pageScale="1" pageWidth="827" pageHeight="1169" math="0" shadow="0">
      <root>
        <mxCell id="09KerTsDdKkD3QMQb33M-0" />
        <mxCell id="09KerTsDdKkD3QMQb33M-1" parent="09KerTsDdKkD3QMQb33M-0" />
        <mxCell id="09KerTsDdKkD3QMQb33M-2" value="Effectiveness" style="rounded=0;whiteSpace=wrap;html=1;shadow=0;glass=0;comic=0;strokeColor=#666666;fillColor=#f5f5f5;fontSize=12;align=center;fontColor=#333333;" parent="09KerTsDdKkD3QMQb33M-1" vertex="1">
          <mxGeometry x="119.99999999999989" y="200" width="80" height="40" as="geometry" />
        </mxCell>
        <mxCell id="09KerTsDdKkD3QMQb33M-3" value="Safety&lt;br&gt;(from risks)" style="rounded=0;whiteSpace=wrap;html=1;shadow=0;glass=0;comic=0;strokeColor=#666666;fillColor=#f5f5f5;fontSize=12;align=center;fontColor=#333333;" parent="09KerTsDdKkD3QMQb33M-1" vertex="1">
          <mxGeometry x="389.9999999999999" y="200" width="80" height="40" as="geometry" />
        </mxCell>
        <mxCell id="09KerTsDdKkD3QMQb33M-4" value="Efficiency" style="rounded=0;whiteSpace=wrap;html=1;shadow=0;glass=0;comic=0;strokeColor=#666666;fillColor=#f5f5f5;fontSize=12;align=center;fontColor=#333333;" parent="09KerTsDdKkD3QMQb33M-1" vertex="1">
          <mxGeometry x="209.9999999999999" y="200" width="80" height="40" as="geometry" />
        </mxCell>
        <mxCell id="09KerTsDdKkD3QMQb33M-5" value="Context &lt;font style=&quot;font-size: 11px&quot;&gt;Comprehensive&lt;/font&gt;" style="rounded=0;whiteSpace=wrap;html=1;shadow=0;glass=0;comic=0;strokeColor=#666666;fillColor=#f5f5f5;fontSize=12;align=center;fontColor=#333333;" parent="09KerTsDdKkD3QMQb33M-1" vertex="1">
          <mxGeometry x="479.9999999999999" y="200" width="80" height="40" as="geometry" />
        </mxCell>
        <mxCell id="09KerTsDdKkD3QMQb33M-6" value="Satisfaction" style="rounded=0;whiteSpace=wrap;html=1;shadow=0;glass=0;comic=0;strokeColor=#666666;fillColor=#f5f5f5;fontSize=12;align=center;fontColor=#333333;" parent="09KerTsDdKkD3QMQb33M-1" vertex="1">
          <mxGeometry x="300" y="200" width="80" height="40" as="geometry" />
        </mxCell>
        <mxCell id="09KerTsDdKkD3QMQb33M-7" value="ISO-25022 are Qualities perceived by system users and stakeholders depending on how ISO-25012 and ISO-25010 qualities are met." style="shape=note;whiteSpace=wrap;html=1;size=14;verticalAlign=top;align=left;spacingTop=-6;labelBackgroundColor=none;strokeColor=#000000;strokeWidth=1;fillColor=none;fontSize=12;fontColor=#000000;opacity=40;" parent="09KerTsDdKkD3QMQb33M-1" vertex="1">
          <mxGeometry x="570" y="200" width="110" height="120" as="geometry" />
        </mxCell>
        <mxCell id="09KerTsDdKkD3QMQb33M-8" value="Effectiveness" style="rounded=0;whiteSpace=wrap;html=1;shadow=0;glass=0;comic=0;strokeColor=#000000;fillColor=none;fontSize=12;align=center;" parent="09KerTsDdKkD3QMQb33M-1" vertex="1">
          <mxGeometry x="119.99999999999989" y="250" width="80" height="20" as="geometry" />
        </mxCell>
        <mxCell id="09KerTsDdKkD3QMQb33M-9" value="Efficiency" style="rounded=0;whiteSpace=wrap;html=1;shadow=0;glass=0;comic=0;strokeColor=#000000;fillColor=none;fontSize=12;align=center;" parent="09KerTsDdKkD3QMQb33M-1" vertex="1">
          <mxGeometry x="209.9999999999999" y="250" width="80" height="20" as="geometry" />
        </mxCell>
        <mxCell id="09KerTsDdKkD3QMQb33M-10" value="Purpose Achievement" style="rounded=0;whiteSpace=wrap;html=1;shadow=0;glass=0;comic=0;strokeColor=#000000;fillColor=none;fontSize=12;align=center;" parent="09KerTsDdKkD3QMQb33M-1" vertex="1">
          <mxGeometry x="300" y="250" width="80" height="40" as="geometry" />
        </mxCell>
        <mxCell id="09KerTsDdKkD3QMQb33M-11" value="Trust" style="rounded=0;whiteSpace=wrap;html=1;shadow=0;glass=0;comic=0;strokeColor=#000000;fillColor=none;fontSize=12;align=center;" parent="09KerTsDdKkD3QMQb33M-1" vertex="1">
          <mxGeometry x="300" y="300" width="80" height="20" as="geometry" />
        </mxCell>
        <mxCell id="09KerTsDdKkD3QMQb33M-12" value="Pleasure" style="rounded=0;whiteSpace=wrap;html=1;shadow=0;glass=0;comic=0;strokeColor=#000000;fillColor=none;fontSize=12;align=center;" parent="09KerTsDdKkD3QMQb33M-1" vertex="1">
          <mxGeometry x="300" y="330" width="80" height="20" as="geometry" />
        </mxCell>
        <mxCell id="09KerTsDdKkD3QMQb33M-13" value="Comfort" style="rounded=0;whiteSpace=wrap;html=1;shadow=0;glass=0;comic=0;strokeColor=#000000;fillColor=none;fontSize=12;align=center;" parent="09KerTsDdKkD3QMQb33M-1" vertex="1">
          <mxGeometry x="300" y="360" width="80" height="20" as="geometry" />
        </mxCell>
        <mxCell id="09KerTsDdKkD3QMQb33M-14" value="&lt;font style=&quot;font-size: 11px&quot;&gt;Economic harm&lt;/font&gt;" style="rounded=0;whiteSpace=wrap;html=1;shadow=0;glass=0;comic=0;strokeColor=#000000;fillColor=none;fontSize=12;align=center;" parent="09KerTsDdKkD3QMQb33M-1" vertex="1">
          <mxGeometry x="390" y="250" width="80" height="20" as="geometry" />
        </mxCell>
        <mxCell id="09KerTsDdKkD3QMQb33M-15" value="&lt;font style=&quot;font-size: 11px&quot;&gt;Health &amp;amp; Safety&lt;/font&gt;" style="rounded=0;whiteSpace=wrap;html=1;shadow=0;glass=0;comic=0;strokeColor=#000000;fillColor=none;fontSize=12;align=center;" parent="09KerTsDdKkD3QMQb33M-1" vertex="1">
          <mxGeometry x="390" y="280" width="80" height="20" as="geometry" />
        </mxCell>
        <mxCell id="09KerTsDdKkD3QMQb33M-16" value="Environmental" style="rounded=0;whiteSpace=wrap;html=1;shadow=0;glass=0;comic=0;strokeColor=#000000;fillColor=none;fontSize=12;align=center;" parent="09KerTsDdKkD3QMQb33M-1" vertex="1">
          <mxGeometry x="390" y="310" width="80" height="20" as="geometry" />
        </mxCell>
        <mxCell id="09KerTsDdKkD3QMQb33M-17" value="Flexibility" style="rounded=0;whiteSpace=wrap;html=1;shadow=0;glass=0;comic=0;strokeColor=#000000;fillColor=none;fontSize=12;align=center;" parent="09KerTsDdKkD3QMQb33M-1" vertex="1">
          <mxGeometry x="480" y="300" width="80" height="20" as="geometry" />
        </mxCell>
        <mxCell id="09KerTsDdKkD3QMQb33M-18" value="Context completeness" style="rounded=0;whiteSpace=wrap;html=1;shadow=0;glass=0;comic=0;strokeColor=#000000;fillColor=none;fontSize=12;align=center;" parent="09KerTsDdKkD3QMQb33M-1" vertex="1">
          <mxGeometry x="480" y="250" width="80" height="40" as="geometry" />
        </mxCell>
        <mxCell id="09KerTsDdKkD3QMQb33M-19" value="&lt;font style=&quot;font-size: 12px ; font-weight: normal&quot;&gt;&lt;i&gt;Diagram: Qualities - ISO-25022 - Quality in Use&lt;/i&gt;&lt;/font&gt;" style="text;strokeColor=none;fillColor=none;html=1;fontSize=12;fontStyle=1;verticalAlign=middle;align=left;shadow=0;glass=0;comic=0;opacity=30;fontColor=#808080;" parent="09KerTsDdKkD3QMQb33M-1" vertex="1">
          <mxGeometry x="120" y="400" width="520" height="40" as="geometry" />
        </mxCell>
      </root>
    </mxGraphModel>
  </diagram>
</mxfile>
